<svg xmlns="http://www.w3.org/2000/svg" version="1.1" xmlns:xlink="http://www.w3.org/1999/xlink" xmlns:svgjs="http://svgjs.dev/svgjs" width="1000" height="750" viewBox="0 0 1000 750"><rect width="1000" height="750" fill="#000000"></rect><g transform="matrix(0.834,0,0,0.834,82.49454545454546,115.4193570850203)"><svg viewBox="0 0 396 247" data-background-color="#ffffff" preserveAspectRatio="xMidYMid meet" height="623" width="1000" xmlns="http://www.w3.org/2000/svg" xmlns:xlink="http://www.w3.org/1999/xlink"><g id="tight-bounds" transform="matrix(1,0,0,1,0.2400000000000091,-0.09999999999999432)"><svg viewBox="0 0 395.52 247.2" height="247.2" width="395.52"><g><svg></svg></g><g><svg viewBox="0 0 395.52 247.2" height="247.2" width="395.52"><g transform="matrix(1,0,0,1,89.17811860465116,47.215199999999996)"><svg viewBox="0 0 217.16376279069766 152.7696" height="152.7696" width="217.16376279069766"><g><svg viewBox="0 0 217.16376279069766 152.7696" height="152.7696" width="217.16376279069766"><g><svg viewBox="0 0 217.16376279069772 152.76960000000003" height="152.7696" width="217.16376279069766"><g><svg viewBox="0 0 217.16376279069772 152.76960000000003" height="152.76960000000003" width="217.16376279069772"><g id="textblocktransform"><svg viewBox="0 0 217.16376279069772 152.76960000000003" height="152.76960000000003" width="217.16376279069772" id="textblock"><g><svg viewBox="0 0 217.16376279069772 152.76960000000003" height="152.76960000000003" width="217.16376279069772"><g transform="matrix(1,0,0,1,0,0)"><svg width="217.16376279069772" viewBox="0.5 -33.95000076293945 48.900001525878906 34.400001525878906" height="152.76960000000003" data-palette-color="#000000"><path d="M20.7 0.45L20.7 0.45 9.05-26.1 10.4-26.1 8.95-12.3Q8.6-8.8 8.8-7 9-5.2 9.78-4.53 10.55-3.85 11.9-3.75L11.9-3.75Q12.15-2.9 12.23-1.93 12.3-0.95 12.3 0.15L12.3 0.15Q11.55 0.05 9.98 0.03 8.4 0 6.8 0L6.8 0Q5.75 0 4.48 0.03 3.2 0.05 2.1 0.08 1 0.1 0.5 0.15L0.5 0.15Q0.5-0.95 0.6-1.93 0.7-2.9 0.9-3.75L0.9-3.75Q2.2-3.85 3.03-4.58 3.85-5.3 4.38-7.1 4.9-8.9 5.2-12.1L5.2-12.1 6.3-24.3Q6.55-26.7 6.35-27.95 6.15-29.2 5.4-29.63 4.65-30.05 3.2-30.05L3.2-30.05Q2.95-30.95 2.88-31.85 2.8-32.75 2.8-33.95L2.8-33.95Q3.55-33.9 4.9-33.88 6.25-33.85 7.63-33.83 9-33.8 9.8-33.8L9.8-33.8Q10.6-33.8 12.03-33.83 13.45-33.85 14.78-33.88 16.1-33.9 16.6-33.95L16.6-33.95 26.65-10 24.8-10 33.45-33.95Q34.35-33.9 35.75-33.88 37.15-33.85 38.5-33.83 39.85-33.8 40.65-33.8L40.65-33.8Q41.45-33.8 42.75-33.83 44.05-33.85 45.35-33.88 46.65-33.9 47.4-33.95L47.4-33.95Q47.4-32.9 47.33-31.85 47.25-30.8 47-30.05L47-30.05Q44.7-30.05 44.08-28.83 43.45-27.6 43.8-24.25L43.8-24.25 45.2-10.55Q45.5-7.6 45.88-6.2 46.25-4.8 46.98-4.38 47.7-3.95 49.05-3.8L49.05-3.8Q49.25-2.95 49.33-1.98 49.4-1 49.4 0.15L49.4 0.15Q48.9 0.1 47.7 0.08 46.5 0.05 44.98 0.03 43.45 0 42 0 40.55 0 39.65 0L39.65 0Q38.45 0 36.88 0.03 35.3 0.05 33.93 0.08 32.55 0.1 31.95 0.15L31.95 0.15Q31.95-1.1 32.08-1.98 32.2-2.85 32.4-3.75L32.4-3.75Q33.95-3.95 34.65-4.4 35.35-4.85 35.45-6.13 35.55-7.4 35.25-10L35.25-10 33.55-25.95 34.65-25.95 24.45 0.05Q23.8 0.25 22.7 0.35 21.6 0.45 20.7 0.45Z" opacity="1" transform="matrix(1,0,0,1,0,0)" fill="#ffffff" class="wordmark-text-0" data-fill-palette-color="primary" id="text-0"></path></svg></g></svg></g></svg></g></svg></g></svg></g></svg></g></svg></g><g><path d="M232.182 0c68.262 0 123.6 55.338 123.6 123.6 0 68.262-55.338 123.6-123.6 123.6-30.402 0-58.24-10.976-79.768-29.183l11.147 0c19.26 14.022 42.974 22.294 68.621 22.295 64.458 0 116.712-52.254 116.711-116.712 0-64.458-52.254-116.712-116.711-116.712-25.647 0-49.361 8.272-68.621 22.295l-11.147 0c21.528-18.206 49.366-29.183 79.768-29.183z" fill="#ffffff" stroke="transparent" data-fill-palette-color="tertiary"></path></g></svg></g><defs></defs></svg><rect width="395.52" height="247.2" fill="none" stroke="none" visibility="hidden"></rect></g></svg></g></svg>